inDegrees=yes
name=ik_Xsens_4_quaternion
DataType=double
version=3
OpenSimVersion=4.4-2022-07-23-0e9fedc
endheader
time	r_shoulder_elev	r_elbow_flex
0	0	0
0.01666666666666667	0.1383944185775537	-0.1319099259753287
0.03333333333333333	0.3540962705322747	-0.3299493817750193
0.05	0.3799997028135568	-0.3505707499721675
0.06666666666666667	0.5499449249103726	-0.5191351591580996
0.08333333333333333	0.6751015019458337	-0.6399999152333076
0.1	0.7882382586496713	-0.7471869087382205
0.1166666666666667	0.9059375308901395	-0.8560979366368269
0.1333333333333333	1.018718316593543	-0.9603830687817049
0.15	1.132668490571651	-1.070387363093061
0.1666666666666667	1.243095439724447	-1.171235230851112
0.1833333333333333	1.35694153163312	-1.276768601733111
0.2	1.461175120168144	-1.370805268431981
0.2166666666666667	1.591786300504866	-1.488640496547064
0.2333333333333333	1.716724800535609	-1.605134955643019
0.25	1.847438382968613	-1.727612033848276
0.2666666666666667	1.976423864652506	-1.84493162816067
0.2833333333333333	2.099912382478552	-1.958554525005237
0.3	2.232994824330658	-2.080217272664385
0.3166666666666667	2.362836701134812	-2.199779790723444
0.3333333333333333	2.494140434426687	-2.317549512439143
0.35	2.635029944433828	-2.44400920183219
0.3666666666666666	2.761708362706668	-2.557754136157669
0.3833333333333333	2.893319382153724	-2.678271671298737
0.4	3.018523055282153	-2.7916830750122
0.4166666666666667	3.131989996565856	-2.891465962680614
0.4333333333333333	3.258226196002235	-3.00551010275216
0.45	3.38887113888117	-3.122070556700436
0.4666666666666667	3.522431548570909	-3.241141043660198
0.4833333333333333	3.659911198342259	-3.365295514920172
0.5	3.788064775173453	-3.479890921711358
0.5166666666666666	3.913871422018821	-3.592862438727791
0.5333333333333333	4.03184760355419	-3.698780646193909
0.55	4.158004175221563	-3.812777203410097
0.5666666666666667	4.287103590099517	-3.928501524078454
0.5833333333333334	4.414271532100196	-4.042539892704514
0.6	4.541991866156526	-4.155697693240931
0.6166666666666667	4.678805563039018	-4.278861674297651
0.6333333333333333	4.800521696310828	-4.385699314536883
0.65	4.916531354800758	-4.487953346666206
0.6666666666666666	5.045395665280399	-4.603334042118587
0.6833333333333333	5.179641110270373	-4.722881746832582
0.7	5.30070694440736	-4.829035110720171
0.7166666666666667	5.427116591582066	-4.941849567567015
0.7333333333333333	5.558269681439389	-5.058241117055984
0.75	5.691199473944805	-5.179399297083076
0.7666666666666666	5.814428353808437	-5.290424892423315
0.7833333333333333	5.937101006802346	-5.399490421693462
0.8	6.068300610844273	-5.516648704420448
0.8166666666666667	6.195559239378653	-5.629396900575231
0.8333333333333334	6.317757022024344	-5.737384395920178
0.85	6.435741389970664	-5.842736962878073
0.8666666666666667	6.56121111010765	-5.954671191103927
0.8833333333333333	6.689226070478081	-6.069820828252904
0.9	6.822333210142808	-6.189538966033254
0.9166666666666666	6.960856525952545	-6.313730264924305
0.9333333333333333	7.082970298063226	-6.421742510437088
0.95	7.208048221784733	-6.533133562204007
0.9666666666666667	7.338533323930276	-6.650711154991603
0.9833333333333333	7.46898068478545	-6.768036277272264
1	7.605670051721225	-6.889933091401033
1.016666666666667	7.735405910553491	-7.007333137514395
1.033333333333333	7.867215934794423	-7.1248327807383
1.05	7.995415415624397	-7.238236828589931
1.066666666666667	8.121843888658619	-7.349496864287902
1.083333333333333	8.250861495871977	-7.464380029430236
1.1	8.369053071505983	-7.566879284154918
1.116666666666667	8.495517916589423	-7.678130615472131
1.133333333333333	8.636162268524423	-7.804164486283442
1.15	8.76601055368565	-7.919704842639005
1.166666666666667	8.897862678544961	-8.036443088812693
1.183333333333333	9.026272361491117	-8.149840362016519
1.2	9.153880667749227	-8.262502419624903
1.216666666666667	9.28877958335773	-8.381584434648724
1.233333333333333	9.420230811504208	-8.497366495960211
1.25	9.541785605406137	-8.604216353754238
1.266666666666667	9.670822953040453	-8.718520071436011
1.283333333333333	9.801171827882417	-8.833493946294604
1.3	9.924718472551186	-8.942236135651228
1.316666666666667	10.05752979839181	-9.061206323900404
1.333333333333333	10.17799595497808	-9.165295284946088
1.35	10.30476641426938	-9.27745509982357
1.366666666666667	10.4374519399227	-9.394919188383055
1.383333333333333	10.56138448803739	-9.50414380874799
1.4	10.67357115646727	-9.600692845317036
1.416666666666667	10.78973941209499	-9.700089139748684
1.433333333333333	10.89314600036476	-9.78723526801519
1.45	10.99365620969149	-9.87242931656267
1.466666666666667	11.0990432060852	-9.962394379562662
1.483333333333333	11.10784573759745	-9.954135859755342
1.5	11.29692302110337	-10.12748263911505
1.516666666666667	11.30480623556025	-10.12014150951926
1.533333333333333	11.4886664427993	-10.28823284558347
1.55	11.49699195508218	-10.28045016418391
1.566666666666667	11.67972380456252	-10.4474717421372
1.583333333333333	11.68799808982228	-10.43970803347324
1.6	11.85829139840508	-10.59390381690678
1.616666666666667	11.86628460341144	-10.58642354000751
1.633333333333333	12.03825221057676	-10.74164914979814
1.65	12.04668880710557	-10.73368734561896
1.666666666666667	12.21173534433288	-10.88215484313583
1.683333333333333	12.22023567256135	-10.87418653218355
1.7	12.40116830149653	-11.03863060286791
1.716666666666667	12.40959586272054	-11.03060362724814
1.733333333333333	12.55223803112256	-11.15559530463883
1.75	12.56043953198898	-11.14782422334517
1.766666666666667	12.7034914960133	-11.27343081367973
1.783333333333333	12.71189172066041	-11.26548293080772
1.8	12.86165500764506	-11.39737778430083
1.816666666666667	12.87028639961016	-11.38917826251459
1.833333333333333	13.01852715651453	-11.52173371489355
1.85	13.02714839264286	-11.51351751288027
1.866666666666667	13.16749038591454	-11.6362104964506
1.883333333333333	13.17635924539036	-11.62770916987731
1.9	13.30805708377058	-11.74346934772253
1.916666666666667	13.31712625536251	-11.73479724796072
1.933333333333333	13.45140377412338	-11.85231843417715
1.95	13.46053945595381	-11.84354550971959
1.966666666666667	13.58985855122246	-11.95449451481207
1.983333333333333	13.59853811309972	-11.94613529403762
2	13.71369401971897	-12.0434377143369
2.016666666666667	13.7222241072	-12.0351786161337
2.033333333333333	13.82627432195777	-12.12133513353586
2.05	13.83537662970868	-12.11256923950809
2.066666666666666	13.95951135796433	-12.21791314457919
2.083333333333333	13.96820950561918	-12.20956775106278
2.1	13.977663579455	-12.20066293572802
2.116666666666667	14.11404723455769	-12.31842197887669
2.133333333333333	14.1226404286973	-12.31012017534904
2.15	14.1316732255887	-12.30154964071761
2.166666666666667	14.26205996021686	-12.41345412831574
2.183333333333333	14.27105894264975	-12.40467780706436
2.2	14.2802052786937	-12.39604572847955
2.216666666666667	14.41100920592193	-12.50883570014001
2.233333333333333	14.42016712230527	-12.49988873170721
2.25	14.42925892968614	-12.49114467324858
2.266666666666667	14.43903869395949	-12.48187784633415
2.283333333333333	14.57025448109608	-12.5948827583064
2.3	14.5797313695533	-12.58554328944052
